<!DOCTYPE svg PUBLIC "-//W3C//DTD SVG 1.1//EN" "http://www.w3.org/Graphics/SVG/1.1/DTD/svg11.dtd">
<!-- Uploaded to: SVG Repo, www.svgrepo.com, Transformed by: SVG Repo Mixer Tools -->
<svg fill="#ffffff" height="800px" width="800px" version="1.1" xmlns="http://www.w3.org/2000/svg" viewBox="0 0 434.094 434.094" xmlns:xlink="http://www.w3.org/1999/xlink" enable-background="new 0 0 434.094 434.094" stroke="#ffffff">
<g id="SVGRepo_bgCarrier" stroke-width="0"/>
<g id="SVGRepo_tracerCarrier" stroke-linecap="round" stroke-linejoin="round"/>
<g id="SVGRepo_iconCarrier"> <path d="m426.131,275.024c-6.848-9.062-16.986-14.573-28.168-15.45v-54.279c0-5.493-3.585-10.342-8.837-11.951l-65.095-19.95-7.062-42.66c-0.999-6.034-6.216-10.458-12.332-10.458h-77.544l-48.266-34.968c-1.693-1.227-3.668-2.01-5.743-2.276l-120.453-15.457c-5.85-0.751-11.438,2.696-13.389,8.269l-37.894,108.264c-0.453,1.295-0.686,2.642-0.701,3.987l-.643,48.424c-0.283,21.314 14.647,39.995 35.499,44.418 3.048,0.646 6.114,0.959 9.155,0.959 16.15,0 31.569-8.825 39.483-23.356l22.587-41.473c1.824-3.349 2.02-7.348 0.53-10.859-1.489-3.511-4.5-6.15-8.175-7.167l-69.724-19.288 30.134-86.093 107.247,13.762 27.396,19.848v132.166h-10.016c-12.417,0-23.833,5.682-31.318,15.588-7.486,9.907-9.835,22.439-6.445,34.384l5.354,18.867c6.408,22.578 27.275,38.347 50.745,38.347h174.021c23.47,0 44.337-15.769 50.745-38.347l5.355-18.867c3.39-11.945 1.041-24.478-6.446-34.384zm-348.888-56.086l-15.056,27.645c-4.156,7.631-12.996,11.702-21.496,9.898-9.216-1.955-15.813-10.21-15.688-19.63l.428-32.246 51.812,14.333zm295.72,40.498h-47.5v-59.455l47.5,14.558v44.897zm-122.651-114.161v51.107l-31.176,9.99v-61.097h31.176zm-31.176,87.35l47.49-15.218c5.175-1.658 8.686-6.47 8.686-11.904v-60.228h18.724l6.428,38.828v75.333h-81.327v-26.811zm189.39,69.958l-5.355,18.867c-3.371,11.877-14.348,20.172-26.695,20.172h-174.021c-12.347,0-23.324-8.295-26.695-20.172l-5.354-18.867c-1.231-4.338-0.378-8.889 2.34-12.486 2.719-3.597 6.864-5.661 11.373-5.661h210.693c4.509,0 8.654,2.063 11.373,5.661 2.719,3.597 3.572,8.148 2.341,12.486z"/> </g>
</svg>