<!DOCTYPE svg PUBLIC "-//W3C//DTD SVG 1.1//EN" "http://www.w3.org/Graphics/SVG/1.1/DTD/svg11.dtd">
<!-- Uploaded to: SVG Repo, www.svgrepo.com, Transformed by: SVG Repo Mixer Tools -->
<svg fill="#fff" height="800px" width="800px" version="1.1" xmlns="http://www.w3.org/2000/svg" viewBox="0 0 410.762 410.762" xmlns:xlink="http://www.w3.org/1999/xlink" enable-background="new 0 0 410.762 410.762" stroke="#fff">
<g id="SVGRepo_bgCarrier" stroke-width="0"/>
<g id="SVGRepo_tracerCarrier" stroke-linecap="round" stroke-linejoin="round"/>
<g id="SVGRepo_iconCarrier"> <path d="m398.262,105.422h-51.036v-55.237c0-6.903-5.597-12.5-12.5-12.5h-121.497c-4.83,0-9.229,2.783-11.296,7.148l-49.705,104.924h-107.465v-29.835c-7.10543e-15-6.903-5.597-12.5-12.5-12.5s-12.5,5.597-12.5,12.5v76.215l-3.025-1.089c-6.495-2.338-13.657,1.032-15.995,7.527s1.032,13.657 7.527,15.995l11.493,4.137v11.725l-3.025-1.089c-6.495-2.337-13.657,1.031-15.995,7.527-2.338,6.495 1.032,13.657 7.527,15.995l11.493,4.138v11.725l-3.025-1.089c-6.495-2.339-13.657,1.032-15.995,7.527-2.338,6.496 1.032,13.657 7.527,15.995l11.493,4.137v11.725l-3.025-1.089c-6.495-2.338-13.657,1.032-15.995,7.527s1.032,13.657 7.527,15.995l11.493,4.137v22.983c0,6.903 5.597,12.5 12.5,12.5s12.5-5.597 12.5-12.5v-13.983l3.025,1.089c1.398,0.503 2.828,0.742 4.233,0.742 5.122,0 9.927-3.173 11.762-8.27 2.338-6.496-1.032-13.657-7.527-15.995l-11.493-4.137v-11.725l3.025,1.089c1.398,0.503 2.828,0.742 4.233,0.742 5.122,0 9.927-3.173 11.762-8.27 2.338-6.496-1.032-13.657-7.527-15.995l-11.493-4.137v-11.725l3.025,1.089c1.398,0.503 2.828,0.742 4.233,0.742 5.122,0 9.927-3.172 11.762-8.27 2.338-6.495-1.032-13.657-7.527-15.995l-11.493-4.138v-11.725l3.025,1.089c1.398,0.503 2.828,0.742 4.233,0.742 5.122,0 9.927-3.173 11.762-8.27 2.338-6.496-1.032-13.657-7.527-15.995l-11.493-4.137v-30.38h102.875v67.822c-30.162,6.025-52.962,32.701-52.962,64.609 0,36.332 29.558,65.89 65.89,65.89 32.057,0 58.827-23.017 64.685-53.39h33.039c5.859,30.373 32.628,53.39 64.685,53.39 36.331,0 65.889-29.558 65.889-65.89 0-15.44-5.352-29.645-14.28-40.89h23.679c6.903,0 12.5-5.597 12.5-12.5v-135.872c-0.001-6.903-5.597-12.5-12.501-12.5zm-186.087,160.876h59.19c-6.456,8.132-11.035,17.811-13.076,28.39h-33.039c-2.04-10.579-6.619-20.258-13.075-28.39zm8.964-203.613h30.623v87.073h-71.871l41.248-87.073zm43.123,112.072c6.903,0 12.5-5.596 12.5-12.5v-99.572h45.464v178.614h-149.588v-66.541h91.624zm-103.697,173.32c-22.547,0-40.89-18.343-40.89-40.89s18.343-40.89 40.89-40.89 40.89,18.343 40.89,40.89-18.343,40.89-40.89,40.89zm162.409,0c-22.547,0-40.89-18.343-40.89-40.89s18.343-40.89 40.89-40.89c22.546,0 40.889,18.343 40.889,40.89s-18.343,40.89-40.889,40.89zm62.788-106.78h-38.536v-110.876h38.536v110.876z"/> </g>
</svg>