<!DOCTYPE svg PUBLIC "-//W3C//DTD SVG 1.1//EN" "http://www.w3.org/Graphics/SVG/1.1/DTD/svg11.dtd">
<!-- Uploaded to: SVG Repo, www.svgrepo.com, Transformed by: SVG Repo Mixer Tools -->
<svg fill="#ffffff" height="800px" width="800px" version="1.1" xmlns="http://www.w3.org/2000/svg" viewBox="0 0 451.679 451.679" xmlns:xlink="http://www.w3.org/1999/xlink" enable-background="new 0 0 451.679 451.679" stroke="#ffffff">
<g id="SVGRepo_bgCarrier" stroke-width="0"/>
<g id="SVGRepo_tracerCarrier" stroke-linecap="round" stroke-linejoin="round"/>
<g id="SVGRepo_iconCarrier"> <path d="m451.395,290.766l-19.16-88.23c-1.248-5.747-6.334-9.847-12.215-9.847h-22.883v-41.566c0-6.903-5.596-12.5-12.5-12.5s-12.5,5.597-12.5,12.5v41.566h-40.46v-81.566c0-6.904-5.597-12.5-12.5-12.5h-70.857c-5.468,0-10.301,3.554-11.932,8.773l-26.64,85.293h-36.568c-5.846,0-10.911,4.051-12.195,9.754l-14.221,63.166h-6.472c-0.756-17.73-7.945-34.3-20.506-47.025-13.521-13.697-31.565-21.241-50.81-21.241-6.904,0-12.5,5.597-12.5,12.5 0,36.928-9.552,73.188-27.67,105.286h-16.306c-6.903,0-12.5,5.596-12.5,12.5s5.597,12.5 12.5,12.5h55.597c31.965,0 59.359-20.862 68.779-49.52h4.017c-0.044,0.933-0.071,1.871-0.071,2.815 0,32.882 26.751,59.633 59.633,59.633 28.596,0 52.545-20.236 58.305-47.137h33.245c5.76,26.901 29.71,47.137 58.305,47.137 28.596,0 52.546-20.236 58.306-47.138h30.562c3.781,0 7.359-1.711 9.731-4.655 2.375-2.944 3.288-6.803 2.486-10.498zm-383.298,24.363h-11.04c13.964-28.486 22.134-59.491 24.004-91.207 7.862,2.105 15.055,6.27 20.933,12.224 8.784,8.899 13.533,20.693 13.37,33.209-0.328,25.24-21.531,45.774-47.267,45.774zm189.413-191.506h49.166v69.066h-70.738l21.572-69.066zm-57.055,204.434c-19.097,0-34.633-15.537-34.633-34.633s15.537-34.633 34.633-34.633 34.633,15.537 34.633,34.633-15.536,34.633-34.633,34.633zm149.856,0c-19.097,0-34.633-15.537-34.633-34.633s15.537-34.633 34.633-34.633 34.633,15.537 34.633,34.633-15.536,34.633-34.633,34.633zm58.304-47.138c-5.763-26.897-29.711-47.128-58.304-47.128-28.593,0-52.541,20.232-58.304,47.13h-33.248c-5.763-26.898-29.711-47.13-58.304-47.13-7.708,0-15.071,1.486-21.839,4.16l4.562-20.262h135.999 90.766l13.731,63.23h-15.059z"/> </g>
</svg>